<?xml version="1.0" standalone="no"?><!DOCTYPE svg PUBLIC "-//W3C//DTD SVG 1.1//EN" "http://www.w3.org/Graphics/SVG/1.1/DTD/svg11.dtd"><svg t="1528882649997" class="icon" style="" viewBox="0 0 1024 1024" version="1.1" xmlns="http://www.w3.org/2000/svg" p-id="1898" data-spm-anchor-id="a313x.7781069.0.i5" xmlns:xlink="http://www.w3.org/1999/xlink" width="200" height="200"><defs><style type="text/css"></style></defs><path d="M192 960l128 0c0-70.656-28.608-128-64-128S192 889.344 192 960zM908.416 643.904c-34.944-6.464-74.432 24.768-109.312 86.016-34.752 60.864-77.76 101.504-174.528 101.504L399.04 831.424c-96.832 0-139.776-40.64-174.592-101.504C189.632 668.608 149.76 637.376 115.2 643.904c-24.384 4.608-43.968 28.992-51.2 62.144L64 832c0 47.936 26.688 89.28 65.664 111.168C137.984 880.512 191.04 832 256 832c70.656 0 128 57.344 128 128l64 0c0-35.392 28.608-64 64-64s64 28.608 64 64l64 0c0-70.656 57.344-128 128-128 64.96 0 118.016 48.512 126.336 111.168C933.312 921.28 960 879.936 960 832l0-124.8C952.96 673.408 933.12 648.576 908.416 643.904zM704 960l128 0c0-70.656-28.608-128-64-128S704 889.344 704 960zM832 64 192 64C121.344 64 64 121.344 64 192l0 401.856c12.288-8.064 25.472-14.272 39.872-17.024 29.44-5.76 105.344-5.312 175.488 117.696 22.848 40.256 44.864 68.672 119.68 68.672L624.64 763.2c74.752 0 96.768-28.416 119.68-68.672 70.144-122.944 146.048-123.456 175.424-117.696C934.272 579.648 947.648 585.984 960 594.176L960 192C960 121.344 902.656 64 832 64zM792.896 318.208C764.352 447.296 649.6 544 512 544S259.648 447.296 231.104 318.208C209.088 313.92 192 295.36 192 272 192 245.504 213.504 224 240 224S288 245.504 288 272c0 17.984-10.304 33.152-25.024 41.344C289.152 427.008 390.4 512 512 512s222.848-84.992 249.024-198.656C746.304 305.152 736 289.984 736 272c0-26.496 21.504-48 48-48S832 245.504 832 272C832 295.36 814.912 313.92 792.896 318.208z" p-id="1899" data-spm-anchor-id="a313x.7781069.0.i4" class="selected" fill="#d81e06"></path></svg>