<?xml version="1.0" standalone="no"?><!DOCTYPE svg PUBLIC "-//W3C//DTD SVG 1.1//EN" "http://www.w3.org/Graphics/SVG/1.1/DTD/svg11.dtd"><svg t="1529377347011" class="icon" style="" viewBox="0 0 1024 1024" version="1.1" xmlns="http://www.w3.org/2000/svg" p-id="1639" xmlns:xlink="http://www.w3.org/1999/xlink" width="200" height="200"><defs><style type="text/css"></style></defs><path d="M146.385714 1024h146.285715c0-80.757143-32.7-146.285714-73.142858-146.285714s-73.142857 65.528571-73.142857 146.285714zM731.528571 1024h146.285715c0-80.757143-32.7-146.285714-73.142857-146.285714S731.528571 943.242857 731.528571 1024z" fill="" p-id="1640"></path><path d="M965.142857 662.742857c-39.928571-7.385714-85.057143 28.314286-124.928571 98.3-39.714286 69.571429-88.857143 116.014286-199.457143 116.014286H382.957143c-110.657143 0-159.742857-46.442857-199.528572-116.014286-39.8-70-85.357143-105.714286-124.857142-98.3-27.871429 5.271429-50.242857 33.142857-58.571429 71.028572V877.714286c0 54.785714 30.5 102.028571 75.042857 127.057143 9.514286-71.614286 70.142857-127.057143 144.385714-127.057143A146.328571 146.328571 0 0 1 365.814286 1024h73.142857a73.142857 73.142857 0 0 1 146.285714 0h73.142857a146.342857 146.342857 0 0 1 146.285715-146.285714c74.285714 0 134.871429 55.442857 144.385714 127.057143 44.542857-25.028571 75.042857-72.271429 75.042857-127.057143v-142.628572c-8.042857-38.571429-30.714286-67-58.957143-72.342857z" fill="" p-id="1641"></path><path d="M877.814286 0h-731.428572A146.342857 146.342857 0 0 0 0.1 146.285714v459.271429c14.042857-9.228571 29.114286-16.314286 45.571429-19.457143 33.642857-6.585714 120.385714-6.071429 200.557142 134.5 26.114286 46.014286 51.271429 78.485714 136.771429 78.485714h257.828571c85.428571 0 110.6-32.471429 136.785715-78.485714 80.157143-140.5 166.9-141.085714 200.471428-134.5 16.614286 3.214286 31.9 10.457143 46.014286 19.814286V146.285714A146.342857 146.342857 0 0 0 877.814286 0z" fill="#E71F2A" p-id="1642"></path><path d="M694.957143 219.428571h-109.714286v292.571429a73.142857 73.142857 0 0 1-146.285714 0V219.428571h-109.714286a36.571429 36.571429 0 1 1 0-73.142857h365.714286a36.571429 36.571429 0 1 1 0 73.142857z" fill="#FFFFFF" p-id="1643"></path></svg>